<svg width="1637" height="527" viewBox="0 0 1637 527" fill="none" xmlns="http://www.w3.org/2000/svg">
<path fill-rule="evenodd" clip-rule="evenodd" d="M375.338 435.053C369.125 446.107 369.161 446.325 377.098 445.81L381.867 445.5L387.206 436C390.142 430.775 392.551 426.163 392.559 425.75C392.568 425.337 389.968 425 386.782 425H380.989L375.338 435.053ZM1269.96 429.75C1268.48 432.362 1265.98 436.644 1264.42 439.265C1262.85 441.886 1261.57 444.473 1261.57 445.015C1261.57 445.557 1264.2 446 1267.4 446H1273.22L1278.65 436.274C1281.63 430.925 1284.22 426.2 1284.41 425.774C1284.59 425.348 1282.02 425 1278.7 425H1272.66L1269.96 429.75ZM296.623 428.212C296.104 429.471 293.819 438.15 291.545 447.5C289.271 456.85 287.2 465.157 286.943 465.961C286.605 467.018 285.524 466.382 283.032 463.663C278.133 458.314 273.629 456.683 264.036 456.781C250.585 456.918 241.427 461.761 233.016 473.187C222.587 487.354 219.824 505.994 226.629 516.268C230.902 522.719 236.196 525 246.898 525C256.516 525 263.531 522.873 269.575 518.123C275.863 513.182 275.822 513.172 275.046 519.388L274.345 525H282.441C290.452 525 290.544 524.971 291.174 522.25C292.337 517.235 296.674 500.751 302.028 481C310.363 450.253 315.499 430.671 315.799 428.5C316.055 426.641 315.421 426.48 306.821 426.212C297.991 425.938 297.523 426.03 296.623 428.212ZM617.224 428.759C616.6 429.769 613.575 441.486 613.575 442.894C613.575 443.627 616.908 444 623.464 444H633.353L635.095 437.563C637.607 428.285 637.356 428 626.665 428C621.731 428 617.482 428.342 617.224 428.759ZM1455.15 428.87C1454.43 430.04 1451.57 441.086 1451.57 442.71C1451.57 443.677 1454.07 444 1461.56 444H1471.54L1472.14 441.25C1472.47 439.737 1473.33 436.382 1474.04 433.794C1474.75 431.206 1475.08 428.844 1474.79 428.544C1473.88 427.635 1455.73 427.937 1455.15 428.87ZM953.575 434.428C927.1 439.331 908.89 455.692 902.402 480.407C896.918 501.293 904.459 514.851 925.667 522.236C931.294 524.195 934.086 524.467 948.575 524.467C959.329 524.467 966.335 524.026 968.694 523.199C972.036 522.029 972.399 521.5 973.444 516.299C974.981 508.645 975.002 508.714 971.325 509.295C969.538 509.578 964.925 510.325 961.075 510.955C944.152 513.725 929.32 507.755 924.997 496.435C923.696 493.028 923.423 490.189 923.852 484.516C925.85 458.104 953.284 441.227 981.506 449.048C989.822 451.353 989.369 451.593 992.153 443.403C993.536 439.334 993.703 437.728 992.834 436.859C989.465 433.49 966.363 432.06 953.575 434.428ZM104.133 435.25C103.924 435.938 103.481 437.625 103.15 439C101.202 447.072 88.3627 498.083 87.5437 501C87.0037 502.925 86.1407 506.3 85.6247 508.5C85.1097 510.7 84.2237 514.3 83.6557 516.5C81.4727 524.952 81.5137 525 90.9527 525C96.4837 525 99.6507 524.575 100.275 523.75C101.469 522.17 124.502 438.211 124.553 435.25C124.569 434.332 121.914 434 114.544 434C107.388 434 104.403 434.358 104.133 435.25ZM508.872 441.352C499.954 443.687 499.165 444.458 497.957 452.014C497.61 454.185 496.8 456.398 496.159 456.931C495.517 457.463 491.908 458.034 488.14 458.2L481.289 458.5L479.947 463C477.857 470.01 477.85 470 485.016 470C488.559 470 491.721 470.427 492.043 470.949C492.366 471.47 491.315 476.983 489.707 483.199C484.363 503.867 483.369 510.125 484.803 514.067C486.456 518.611 488.523 521.389 491.376 522.904C494.391 524.504 506.074 525.452 511.938 524.573C517.121 523.796 518.502 522.158 518.853 516.375L519.075 512.725L513.824 512.517C503.912 512.124 502.431 507.263 507.115 490.5C508.498 485.55 510.09 479.493 510.653 477.041C512.191 470.343 512.751 470 522.159 470H530.498L532.036 464.818C532.883 461.969 533.575 459.269 533.575 458.818C533.575 458.368 529.961 458 525.544 458C519.743 458 517.369 457.627 516.997 456.657C516.713 455.918 517.402 451.989 518.528 447.927C519.654 443.864 520.575 440.194 520.575 439.77C520.575 438.621 517.952 438.975 508.872 441.352ZM1521.07 455.669C1507.56 457.215 1498.69 460.872 1489.69 468.618C1475.86 480.513 1470.52 502.174 1478.5 514.051C1482.48 519.98 1488.26 523.506 1497.33 525.53C1504.62 527.159 1505.63 527.162 1514.56 525.586C1535.29 521.927 1549.43 510.695 1554.75 493.661C1557.12 486.076 1557.09 476.699 1554.67 471.5C1551.01 463.602 1542.15 457.547 1532.69 456.474C1529.6 456.123 1526.4 455.721 1525.57 455.581C1524.75 455.44 1522.72 455.48 1521.07 455.669ZM442.802 457.146C435.828 458.146 426.912 461.743 421.867 465.591C417.193 469.156 414.575 474.804 414.575 481.324C414.575 489.202 416.771 491.176 432.495 497.441C436.027 498.847 439.739 500.743 440.745 501.654C444.361 504.926 442.263 509.553 435.575 513.061C431.988 514.943 418.003 514.673 413.357 512.633C407.925 510.247 406.885 510.533 406.118 514.623C405.744 516.616 404.918 519.08 404.282 520.098C401.924 523.873 404.5 524.5 422.374 524.5C438.945 524.5 439.125 524.476 445.575 521.425C456.566 516.225 461.801 509.472 461.934 500.322C462.048 492.419 458.516 489.242 444.215 484.377C434.173 480.962 431.671 478.092 434.959 473.761C438.194 469.501 450.167 467.751 461.315 469.908C464.164 470.459 465.827 470.362 466.382 469.614C468.06 467.354 470.548 459.574 469.824 458.857C469.072 458.113 453.456 455.893 450.601 456.123C449.762 456.191 446.252 456.652 442.802 457.146ZM671.264 457.002C667.517 457.466 662.237 458.414 659.53 459.108C655.369 460.175 654.464 460.843 653.676 463.435C652.299 467.962 651.395 474 652.094 474C652.43 474 654.813 473.129 657.39 472.065C674.945 464.816 691.575 467.772 691.575 478.141C691.575 483.837 691.244 484 679.652 484C650.175 484 634.638 492.89 634.245 509.98C634.006 520.389 638.666 524.001 653.314 524.759C663.842 525.304 670.159 523.766 677.375 518.9C683.206 514.968 683.826 515.143 683.023 520.5L682.348 525H689.339C693.754 525 696.683 524.539 697.288 523.75C697.815 523.063 699.273 518.225 700.529 513C701.785 507.775 704.334 497.879 706.194 491.01C709.904 477.303 710.356 471.438 708.07 466.651C706.388 463.128 701.483 459.408 696.718 458.041C691.73 456.61 678.704 456.078 671.264 457.002ZM802.901 457.045C778.419 461.885 759.418 493.245 769.142 512.759C772.737 519.973 778.653 523.475 790.453 525.375C798.26 526.631 800.798 526.631 810.242 525.368C826.81 523.153 826.284 523.532 829.128 511.75C829.785 509.029 828.864 508.2 827.025 509.855C822.995 513.485 804.186 516.063 796.635 514.021C791.018 512.502 785.956 507.546 785.041 502.668C783.797 496.041 783.702 496.064 812.824 495.766L838.855 495.5L840.2 491C842.17 484.407 841.916 473.348 839.682 468.429C837.338 463.269 831.578 458.49 826.011 457.088C821.079 455.846 809.076 455.823 802.901 457.045ZM1027.57 457.032C1020.1 458.58 1009.23 464.572 1003.29 470.422C996.854 476.752 992.284 485.555 990.517 495.02C989.472 500.618 989.535 502.35 990.964 507.266C993.962 517.578 1000.75 522.978 1013.92 525.514C1026.95 528.025 1044.17 523.875 1055.63 515.46C1065.77 508.012 1072.59 494.614 1072.55 482.205C1072.52 471.266 1067.45 463.34 1057.57 458.758C1052.43 456.374 1035.46 455.398 1027.57 457.032ZM1136.22 457.088C1129.99 458.083 1123.94 460.506 1119.76 463.684C1115.91 466.609 1115.02 466.171 1115.42 461.536C1115.64 458.989 1115.27 458.058 1113.89 457.677C1110.99 456.877 1100.18 456.932 1099.02 457.752C1097.91 458.547 1082.57 519.312 1082.57 522.939C1082.57 524.983 1082.96 525.065 1091.3 524.789L1100.02 524.5L1103.77 510.5C1109.8 487.988 1111.41 483.508 1115.22 478.513C1124.45 466.422 1139.57 467.509 1139.57 480.262C1139.57 483.182 1132.86 512.493 1130.57 519.571C1128.83 524.946 1128.91 525 1138.55 525H1147.52L1149.02 519.75C1149.84 516.862 1152.09 508.712 1154.01 501.639C1159.26 482.325 1163.2 475.439 1171.03 471.88C1176.65 469.33 1180.89 469.502 1184.27 472.417C1186.79 474.589 1187.06 475.428 1186.93 480.667C1186.85 483.875 1184.71 494.569 1182.18 504.432C1179.65 514.295 1177.57 522.957 1177.57 523.682C1177.57 524.674 1179.78 525 1186.5 525H1195.43L1196.95 519.75C1198.33 514.961 1200.06 508.488 1205.68 487C1209.14 473.741 1208.16 464.559 1202.77 459.674C1200.08 457.241 1190.5 456.005 1183.22 457.154C1177.15 458.111 1166.93 462.657 1164.64 465.418C1162.67 467.799 1161.69 467.408 1157.4 462.535C1153.51 458.122 1152.5 457.691 1143.57 456.615C1142.2 456.45 1138.89 456.663 1136.22 457.088ZM1255.27 457.096C1247.67 458.884 1240.2 463.31 1233.56 469.95C1228.26 475.242 1226.28 478.153 1223.61 484.531C1220.77 491.346 1220.27 493.731 1220.21 501C1220.13 510.308 1221.25 513.511 1226.24 518.136C1230.59 522.177 1234.94 523.99 1244.15 525.597C1251.72 526.919 1253.72 526.901 1263.83 525.424C1278.77 523.24 1280.13 522.476 1281.59 515.433C1282.81 509.57 1282.47 508.043 1280.35 509.72C1277.09 512.291 1266.76 514.499 1258.07 514.481C1250.39 514.465 1248.52 514.12 1245.29 512.111C1243.21 510.817 1240.84 508.486 1240.04 506.929C1238.06 503.105 1238.13 497.386 1240.16 496.607C1241.03 496.273 1253.13 496 1267.05 496H1292.36L1293.97 488.877C1295.98 479.958 1295.98 477.575 1293.95 471.428C1291.74 464.741 1286.38 459.316 1280.16 457.47C1274.76 455.867 1261.35 455.665 1255.27 457.096ZM175.794 458.973C172.889 460.018 168.638 462.252 166.347 463.936C164.056 465.621 161.828 467 161.397 467C160.966 467 160.891 464.975 161.23 462.5L161.847 458H152.711C144.182 458 143.575 458.136 143.575 460.04C143.575 461.827 134.105 501.751 130.049 517.066C127.821 525.478 127.48 525.114 137.289 524.789L146.004 524.5L150.861 507C156.383 487.106 157.538 484.221 162.422 478.115C167.025 472.361 173.153 469.609 179.916 470.259C186.979 470.937 189.575 474.043 189.575 481.812C189.575 484.948 189.109 489.085 188.54 491.007C187.97 492.928 186.828 497.425 186.002 501C185.175 504.575 183.82 510.2 182.989 513.5C182.159 516.8 181.222 520.756 180.908 522.291L180.336 525.081L189.206 524.791L198.075 524.5L204.321 502C212.846 471.289 212.534 463.866 202.504 458.752C197.644 456.273 182.957 456.395 175.794 458.973ZM582.259 458.449C577.769 460.05 575.543 461.754 569.894 467.913C567.594 470.42 565.432 472.19 565.088 471.846C564.744 471.503 565.163 468.519 566.019 465.216C566.875 461.914 567.575 458.939 567.575 458.606C567.575 458.273 563.736 458 559.044 458C553.077 458 550.404 458.376 550.153 459.25C548.817 463.895 534.575 522.98 534.575 523.878C534.575 525.307 551.194 525.426 552.073 524.003C552.412 523.455 554.705 515.751 557.168 506.884C561.964 489.621 563.19 486.611 567.826 480.712C572.183 475.168 577.681 472.706 585.7 472.706H592.329L593.952 466.868C596.55 457.525 596.38 456.993 590.825 457.044C588.213 457.068 584.358 457.7 582.259 458.449ZM1320.39 458.25C1319.53 458.938 1318.28 462.389 1317.62 465.919C1316.95 469.45 1313.52 483.85 1309.99 497.919C1306.47 511.989 1303.58 523.837 1303.58 524.25C1303.58 524.663 1307.59 525 1312.5 525H1321.43L1322.93 519.75C1323.75 516.862 1325.86 509.226 1327.61 502.781C1331.37 488.978 1336.25 479.933 1341.99 476.109C1345.15 474.008 1347.48 473.403 1353.95 473L1361.99 472.5L1363.76 465.614C1364.73 461.826 1365.25 458.282 1364.91 457.738C1364.01 456.284 1352.53 457.452 1348.81 459.376C1347.07 460.278 1343.15 463.566 1340.11 466.684C1334.19 472.749 1333.84 472.531 1335.68 463.926C1336.58 459.742 1336.53 458.589 1335.43 457.892C1333.35 456.57 1322.16 456.837 1320.39 458.25ZM1400.6 458.543C1381.57 463.867 1368.47 477.495 1365.67 494.87C1362.77 512.91 1372.55 523.586 1392.95 524.652C1397.97 524.914 1404.77 524.761 1408.06 524.311C1414.77 523.396 1416.11 521.882 1416.74 514.5C1417.06 510.702 1416.95 510.525 1414.57 511C1413.2 511.275 1408.47 511.5 1404.07 511.5C1394.65 511.5 1390.09 509.45 1387.33 503.966C1382.03 493.465 1389.18 478.729 1402.52 472.633C1406.85 470.658 1415.03 470.094 1423.57 471.182C1425.81 471.466 1426.29 470.885 1428.05 465.772C1429.58 461.327 1429.75 459.777 1428.82 458.848C1426.9 456.926 1407.14 456.712 1400.6 458.543ZM1448.05 458.038C1447.24 459.358 1431.57 521.716 1431.57 523.643C1431.57 524.802 1433.26 525.022 1440.32 524.789L1449.07 524.5L1451.22 517.5C1453.23 510.96 1462 478.695 1465.3 465.723C1467.44 457.315 1467.14 457 1457.16 457C1452.39 457 1448.41 457.453 1448.05 458.038ZM324.712 478.83C321.857 490.287 319.247 501.976 318.912 504.807C318.029 512.258 320.038 518.489 324.394 521.811C327.73 524.356 328.514 524.5 338.997 524.5C350.857 524.5 352.894 523.924 362.423 517.881C367.392 514.73 369.131 515.408 367.446 519.839C365.764 524.262 366.853 525 375.065 525C384.057 525 382.968 526.639 388.022 505.5C389.995 497.25 392.312 488.025 393.171 485C394.03 481.975 395.392 477.025 396.198 474C400.907 456.332 401.527 458 390.248 458H380.922L376.675 475.25C371.941 494.478 368.364 503.05 363.064 507.874C356.189 514.129 343.099 514.201 339.801 508C338.341 505.256 338.744 495.698 340.539 490.5C342.021 486.208 347.29 466.192 348.107 461.75L348.798 458H339.35H329.902L324.712 478.83ZM601.712 490.75C597.237 508.763 593.575 523.837 593.575 524.25C593.575 524.663 597.41 525 602.096 525C609.986 525 610.688 524.833 611.564 522.75C612.766 519.894 627.167 466.768 628.1 461.75L628.798 458H619.324H609.85L601.712 490.75ZM802.575 469.084C797.21 471.516 794.185 474.169 790.895 479.325C786.962 485.49 788.121 486.003 805.947 485.985C814.268 485.976 821.75 485.543 822.575 485.021C824.635 483.718 824.371 475.864 822.153 472.478C818.593 467.045 810.259 465.6 802.575 469.084ZM1257.28 468.533C1255.2 469.299 1252.2 470.843 1250.62 471.964C1247.03 474.522 1241.27 483.094 1242.39 484.214C1242.85 484.674 1250.84 484.926 1260.15 484.775L1277.07 484.5L1277.35 480.5C1277.7 475.356 1274.69 470.365 1270.08 468.44C1265.87 466.679 1262.26 466.705 1257.28 468.533ZM1029.57 469.245C1027.63 469.88 1023.4 473.09 1020.07 476.446C1012.98 483.585 1010.56 489.332 1010.57 499C1010.59 509.97 1015.56 515.027 1026.29 514.978C1032.71 514.949 1038.19 512.268 1043.37 506.621C1048.91 500.592 1051.69 494.129 1052.25 486C1052.76 478.625 1051.01 474.06 1046.37 470.657C1043.13 468.284 1034.68 467.573 1029.57 469.245ZM1513.07 469.605C1504.51 472.739 1498.18 481.51 1495.47 494C1493.59 502.659 1497.26 512.082 1503.29 514.072C1518.55 519.108 1535.85 503.74 1536.02 485C1536.14 471.242 1526.42 464.721 1513.07 469.605ZM260.075 471.222C252.935 473.753 247.619 480.02 244.442 489.651C242.085 496.794 242.109 501.377 244.529 506.708C249.005 516.567 263.752 516.286 272.653 506.174C278.54 499.486 280.902 493.771 280.989 486C281.042 481.296 280.54 478.634 279.171 476.365C275.799 470.777 267.577 468.562 260.075 471.222ZM673.176 494.158C663.24 495.131 656.799 498.148 654.169 503.06C650.268 510.345 654.717 515.557 664.642 515.329C671.903 515.162 676.593 512.923 681.604 507.229C685.487 502.819 688.583 495.674 687.207 494.299C686.221 493.313 682.208 493.273 673.176 494.158Z" fill="url(#paint0_linear_601_22)"/>
<path fill-rule="evenodd" clip-rule="evenodd" d="M1326.53 1.47803C1326.3 2.16603 1325.41 9.02803 1324.53 16.728C1322.48 34.738 1321.03 46.763 1320.35 51.478L1319.81 55.228H1355.34H1390.87L1391.41 50.978C1391.71 48.641 1392.44 42.453 1393.04 37.228C1393.63 32.003 1394.75 22.103 1395.53 15.228C1396.31 8.35303 1396.96 2.16603 1396.97 1.47803C1396.98 0.501027 1389.33 0.228027 1361.96 0.228027C1334.81 0.228027 1326.84 0.509027 1326.53 1.47803ZM137.107 77.332C109.842 79.293 80.3975 88.871 58.7695 102.815C36.3315 117.282 13.3075 149.992 5.33453 178.728C0.127535 197.493 -1.49447 223.24 1.47953 239.912C6.13453 266.014 16.8755 285.281 34.1275 298.476C59.1725 317.632 95.2695 325.259 147.104 322.346C166.837 321.237 170.967 320.738 186.989 317.531C197.759 315.375 218.201 309.35 219.645 307.905C219.894 307.656 220.761 301.664 221.571 294.59C222.381 287.516 223.707 276.103 224.518 269.228C227.331 245.36 227.34 245.228 226.117 245.228C225.481 245.228 219.004 248.215 211.725 251.867C179.085 268.239 169.064 271.278 145.418 271.978C131.18 272.4 128.384 272.205 120.918 270.275C109.334 267.279 100.645 262.772 93.4145 256.009C83.4745 246.711 77.6105 233.249 78.1885 221.051L78.4885 214.728L157.163 214.472L235.838 214.216L236.894 210.972C238.966 204.605 240.989 185.667 240.971 172.804C240.94 150.745 236.88 130.662 229.33 115.228C223.223 102.741 213.162 92.329 201.989 86.929C185.143 78.788 162.803 75.483 137.107 77.332ZM679.595 77.346C648.072 79.764 612.742 92.799 593.143 109.241C576.895 122.873 559.96 146.882 552.252 167.215C546.554 182.245 544.088 195.237 543.306 214.352C542.639 230.641 544.104 242.276 548.627 256.63C559.19 290.15 584.864 310.95 625.975 319.293C651.077 324.387 693.692 324.206 723.989 318.877C734.846 316.968 750.733 312.778 757.898 309.936L763.474 307.723L764.631 297.225C765.267 291.452 766.252 282.678 766.82 277.728C769.944 250.481 770.32 246.227 769.672 245.578C769.281 245.187 762.795 247.931 755.26 251.677C719.977 269.216 711.223 271.731 685.489 271.721C665.285 271.714 660.982 270.858 648.495 264.365C631.606 255.583 620.205 237.06 621.186 219.997L621.489 214.728L699.945 214.472C743.096 214.331 778.763 213.854 779.205 213.412C779.648 212.969 780.896 207.235 781.979 200.668C785.909 176.835 784.101 147.08 777.493 126.836C767.078 94.933 745.5 80.14 705.128 77.229C697.627 76.688 691.264 76.305 690.989 76.378C690.714 76.45 685.587 76.886 679.595 77.346ZM1096.99 80.155C1066.94 86.632 1048.9 101.427 1029.21 135.728C1018.68 154.079 1010.46 175.428 1005.83 196.458C1003.12 208.745 1002.58 233.966 1004.82 243.228C1013.93 280.748 1030.43 300.898 1058.49 308.764C1066.2 310.926 1086.08 311.772 1096.99 310.403C1112.76 308.423 1133.02 301.119 1144.34 293.329C1150.62 289.007 1152.4 289.167 1151.55 293.978C1149.79 303.967 1144.39 316.139 1137.69 325.228C1133.72 330.601 1122.59 341.145 1118.37 343.531C1117.2 344.189 1114.8 345.547 1113.04 346.547C1107.32 349.784 1095.04 353.239 1085.91 354.184C1070.26 355.803 1050.75 352.331 1033.14 344.793C1028.56 342.83 1024.39 341.477 1023.9 341.785C1023.4 342.094 1022.99 343.463 1022.99 344.829C1022.99 346.195 1022.36 350.556 1021.59 354.52C1020.82 358.484 1019.42 366.003 1018.49 371.228C1017.55 376.453 1016.19 383.878 1015.45 387.728C1014.71 391.578 1013.83 396.991 1013.48 399.758L1012.86 404.787L1018.67 406.017C1029.69 408.347 1053.67 409.332 1072.61 408.233C1100 406.644 1123.1 401.708 1144.49 392.881C1181.62 377.553 1198.9 357.803 1214.17 313.228C1221.68 291.31 1231.99 247.733 1235.47 223.228C1235.82 220.753 1236.52 216.478 1237.03 213.728C1239.04 202.791 1242.51 177.001 1246.96 139.728C1248.61 125.978 1250.46 110.903 1251.07 106.228C1251.69 101.553 1252.26 94.353 1252.34 90.228L1252.49 82.728H1217.49H1182.49L1181.57 90.978C1181.07 95.516 1180.32 99.228 1179.9 99.228C1179.49 99.228 1176.75 97.149 1173.82 94.609C1167.36 89.009 1157.24 84.005 1146.49 81.092C1135.13 78.016 1109.19 77.524 1096.99 80.155ZM1488.49 80.861C1480.2 81.371 1460.33 84.143 1455.49 85.464C1453.29 86.064 1450.99 87.044 1450.37 87.642C1449.13 88.85 1445.22 141.79 1446.29 142.861C1446.65 143.22 1447.51 143.076 1448.21 142.541C1450.2 141.029 1459.96 137.082 1465.49 135.555C1483.5 130.583 1512.33 127.653 1533.99 128.593C1556.31 129.561 1566.95 131.712 1569.63 135.796C1571.57 138.763 1573.68 161.702 1572.57 167.672L1571.84 171.526L1543.17 170.843C1489.18 169.558 1466.46 173.657 1442.54 188.991C1425.04 200.208 1413.41 214.211 1406.2 232.728C1394.38 263.127 1401.72 292.533 1425.03 308.098C1435.71 315.229 1449.67 318.345 1470.8 318.315C1491.76 318.285 1507.51 314.945 1525.49 306.722C1533.66 302.984 1543.6 295.737 1547.41 290.738C1551.82 284.959 1552.33 285.966 1551.59 298.978C1551.22 305.44 1550.66 312.641 1550.34 314.978L1549.76 319.228H1582.78H1615.79L1616.83 314.478C1618.12 308.584 1620.66 291.744 1621.46 283.728C1621.79 280.428 1622.47 274.578 1622.98 270.728C1623.48 266.878 1624.59 257.203 1625.45 249.228C1629.6 210.505 1631.22 195.757 1632.54 184.728C1636.67 150.068 1637.32 140.03 1636.14 129.162C1631.88 90.084 1612.58 81.279 1529.99 80.728C1510.46 80.597 1491.79 80.657 1488.49 80.861ZM431.204 82.788C410.01 86.089 392.114 92.651 377.771 102.38L372.053 106.259L371.771 94.494L371.489 82.728L337.311 82.465C305.402 82.219 303.096 82.319 302.593 83.965C302.107 85.553 299.613 100.694 295.467 127.228C294.65 132.453 293.552 139.203 293.026 142.228C292.5 145.253 291.386 152.003 290.549 157.228C289.713 162.453 287.661 175.278 285.989 185.728C284.317 196.178 282.286 208.778 281.476 213.728C280.666 218.678 278.653 231.278 277.003 241.728C275.353 252.178 273.569 262.978 273.038 265.728C272.508 268.478 271.799 272.978 271.463 275.728C271.126 278.478 270.426 282.978 269.906 285.728C268.338 294.017 264.997 315.606 264.993 317.478C264.989 319.111 267.319 319.228 299.944 319.228H334.898L335.446 315.978C336.011 312.626 339.161 290.951 341.514 274.228C345.119 248.614 345.995 242.458 346.497 239.228C346.796 237.303 349.316 219.753 352.097 200.228C354.878 180.703 357.536 162.11 358.005 158.909C359.04 151.836 362.211 147.333 369.357 142.789C382.516 134.421 403.094 131.695 422.196 135.788C430.275 137.519 437.699 143.788 440.028 150.847C441.407 155.023 440.831 175.962 439.042 186.728C438.493 190.028 437.132 199.478 436.016 207.728C434.9 215.978 433.535 225.203 432.982 228.228C432.43 231.253 430.872 240.478 429.521 248.728C428.169 256.978 426.327 267.553 425.429 272.228C424.53 276.903 423.456 282.528 423.043 284.728C421.755 291.59 417.975 308.848 416.598 314.156L415.282 319.228H451.056H486.83L487.404 316.478C487.914 314.031 491.183 293.743 495.499 266.228C496.318 261.003 497.68 252.453 498.525 247.228C499.371 242.003 500.676 233.678 501.426 228.728C502.177 223.778 504.493 209.378 506.573 196.728C510.076 175.422 510.358 172.182 510.401 152.728C510.439 135.35 510.127 130.521 508.592 124.728C504.827 110.524 497.002 97.27 489.202 91.886C475.828 82.654 454.026 79.234 431.204 82.788ZM982.076 86.347C966.491 88.154 950.99 94.496 928.477 108.278C922.232 112.1 916.702 115.228 916.187 115.228C914.866 115.228 914.013 109.108 914 99.537C913.992 94.474 913.552 91.076 912.844 90.638C911.63 89.888 846.603 90.053 844.64 90.811C843.732 91.162 827.837 182.965 817.385 248.228C816.725 252.353 815.477 260.003 814.612 265.228C813.747 270.453 812.336 279.003 811.477 284.228C810.617 289.453 809.235 297.778 808.405 302.728C807.575 307.678 806.633 313.416 806.311 315.478L805.726 319.228H842.357H878.989V316.304C878.989 314.696 879.431 311.209 879.971 308.554C880.51 305.9 882.341 293.603 884.036 281.228C885.734 268.853 888.216 251.078 889.554 241.728C890.892 232.378 892.439 221.353 892.992 217.228C893.544 213.103 894.682 205.003 895.523 199.228C896.362 193.453 897.696 184.003 898.49 178.228C900.586 162.951 901.119 160.36 902.367 159.374C904.929 157.352 911.406 156.156 927.49 154.738C947.924 152.935 966.69 152.814 981.242 154.39C987.157 155.031 992.21 155.34 992.472 155.078C992.734 154.816 993.875 149.23 995.008 142.665C997.523 128.085 999.211 118.364 1001.92 102.879C1003.06 96.361 1003.99 89.724 1003.99 88.129V85.228L996.739 85.358C992.752 85.429 986.153 85.874 982.076 86.347ZM1311.48 91.478C1311.24 92.166 1304.73 130.978 1297.02 177.728C1289.31 224.478 1282.33 266.553 1281.52 271.228C1280.71 275.903 1279.33 284.228 1278.46 289.728C1277.58 295.228 1276.47 301.753 1275.99 304.228C1275.5 306.703 1274.84 310.416 1274.5 312.478L1273.9 316.228H1308.4H1342.9L1343.46 312.978C1343.76 311.19 1346.28 296.228 1349.06 279.728C1351.83 263.228 1354.76 245.903 1355.57 241.228C1356.38 236.553 1357.67 228.903 1358.44 224.228C1359.73 216.314 1367.12 172.857 1374.07 132.228C1375.72 122.603 1377.31 113.153 1377.61 111.228C1377.9 109.303 1378.81 104.244 1379.63 99.986C1380.45 95.728 1380.84 91.791 1380.49 91.236C1379.51 89.639 1312.05 89.875 1311.48 91.478ZM125.101 122.809C108.297 127.328 95.1135 140.049 86.4025 160.151C82.4285 169.321 79.6705 179.31 80.7995 180.439C81.2435 180.883 104.531 181.13 132.548 180.987L183.489 180.728L183.376 169.728C183.251 157.621 181.672 150.653 176.802 140.728C172.014 130.967 165.993 125.792 155.961 122.812C149.238 120.816 132.519 120.814 125.101 122.809ZM667.301 123.208C663.897 124.214 658.869 126.257 656.126 127.75C651.025 130.526 641.555 139.356 637.915 144.728C632.001 153.458 623.989 172.772 623.989 178.297V181.246L675.239 180.987L726.489 180.728L726.326 168.728C726.19 158.688 725.742 155.52 723.586 149.334C718.39 134.419 711.484 126.697 700.237 123.223C691.747 120.601 676.154 120.594 667.301 123.208ZM1129.99 133.192C1104.15 135.854 1090.34 144.705 1079.99 165.224C1072.75 179.566 1069.99 191.549 1069.99 208.547C1069.99 236.101 1079.32 251.574 1099.17 256.944C1109.93 259.853 1153.01 258.608 1156.32 255.292C1156.84 254.773 1157.63 252.184 1158.07 249.538C1158.51 246.893 1159.8 239.103 1160.94 232.228C1162.08 225.353 1163.68 215.791 1164.5 210.978C1166.28 200.527 1168.04 190.047 1171.52 169.228C1172.94 160.703 1174.75 150.139 1175.54 145.751C1176.67 139.42 1176.71 137.542 1175.73 136.645C1172.9 134.065 1143.24 131.827 1129.99 133.192ZM1515.49 212.164C1499.76 214.951 1486.55 220.818 1479.01 228.363C1470.03 237.341 1467.11 253.177 1472.59 263.236C1475.73 269.001 1482.74 274.23 1490.79 276.798C1494.87 278.1 1498.32 278.373 1505.79 277.979C1520.06 277.226 1531.95 272.563 1545.13 262.564C1552.73 256.793 1555.64 253.111 1557.51 246.931C1559.32 240.939 1563.22 212.41 1562.41 211.103C1561.4 209.461 1526.25 210.256 1515.49 212.164Z" fill="url(#paint1_linear_601_22)"/>
<defs>
<linearGradient id="paint0_linear_601_22" x1="819.492" y1="425" x2="819.492" y2="526.76" gradientUnits="userSpaceOnUse">
<stop stop-color="#1A284B"/>
<stop offset="1" stop-color="#35699A"/>
</linearGradient>
<linearGradient id="paint1_linear_601_22" x1="818.332" y1="0.228027" x2="818" y2="325" gradientUnits="userSpaceOnUse">
<stop stop-color="#1A284B"/>
<stop offset="1" stop-color="#35699A"/>
</linearGradient>
</defs>
</svg>
