<svg width="313" height="441" viewBox="0 0 313 441" fill="none" xmlns="http://www.w3.org/2000/svg">
<path fill-rule="evenodd" clip-rule="evenodd" d="M200.942 1.47646C198.057 2.5316 174.589 31.4992 120.295 101.02C78.1772 154.953 34.4731 210.748 23.1772 225.012C11.8799 239.275 2.02339 252.49 1.27556 254.376C-1.11156 260.387 -0.2112 264.78 4.50973 270.159C8.53466 274.749 9.95775 275.396 15.9863 275.389C23.2187 275.381 51.331 271.142 137.632 257.048C144.554 255.918 150.34 255.092 150.488 255.214C150.787 255.461 135.358 288.709 98.564 367.099C71.2883 425.213 70.5198 427.792 78.2083 435.486C84.1465 441.429 89.5827 442.508 95.971 439.013C99.7323 436.956 118.27 413.564 164.179 352.948C198.853 307.166 245.548 245.556 267.946 216.037C290.343 186.518 309.846 160.291 311.286 157.752C315.969 149.493 310.514 136.993 301.485 135.298C298.15 134.671 275.066 139.031 227.252 149.315C189.086 157.525 157.614 163.997 157.315 163.696C157.014 163.397 171.512 131.556 189.531 92.9377C207.55 54.3211 222.638 20.6617 223.063 18.1394C224.116 11.8767 220.332 5.13538 214.107 2.1789C208.361 -0.54936 206.725 -0.636796 200.942 1.47646Z" fill="url(#paint0_linear_608_5)"/>
<defs>
<linearGradient id="paint0_linear_608_5" x1="156.5" y1="0" x2="156.5" y2="441" gradientUnits="userSpaceOnUse">
<stop stop-color="#1A284B"/>
<stop offset="1" stop-color="#35699A"/>
</linearGradient>
</defs>
</svg>
